# xmcd
#
# Track frame offsets: 
#        150
#        22757
#        46948
#        65430
#        88640
#        111701
#        134463
#        158815
#        185616
#
# Disc length: 3110 seconds
#
# Revision: 0
# Processed by: cddbd v1.5.2PL0 Copyright (c) Steve Scherf et al.
# Submitted via: ExactAudioCopy v1.0b1
#
DISCID=760c2409
DTITLE=Glen Meadmore - Chicken and Biscuits
DYEAR=1987
DGENRE=Country
TTITLE0=Do Me Baby
TTITLE1=Hen Party
TTITLE2=Lovin' In My Oven
TTITLE3=Going To Town
TTITLE4=Girlene
TTITLE5=Gotta Thing
TTITLE6=Blissfull Thing
TTITLE7=Just A Girl
TTITLE8=Evil Fairies
EXTD=
EXTT0=
EXTT1=
EXTT2=
EXTT3=
EXTT4=
EXTT5=
EXTT6=
EXTT7=
EXTT8=
PLAYORDER=
